<?xml version="1.0" standalone="no"?>
<!DOCTYPE svg PUBLIC "-//W3C//DTD SVG 20010904//EN"
 "http://www.w3.org/TR/2001/REC-SVG-20010904/DTD/svg10.dtd">
<svg version="1.0" xmlns="http://www.w3.org/2000/svg"
 width="443.000000pt" height="231.000000pt" viewBox="0 0 443.000000 231.000000"
 preserveAspectRatio="xMidYMid meet">

<g transform="translate(0.000000,231.000000) scale(0.100000,-0.100000)"
fill="#000000" stroke="none">
<path d="M1093 2178 c-28 -13 -28 -20 -4 -42 18 -16 19 -16 23 18 2 20 4 36 3
35 0 0 -10 -5 -22 -11z"/>
<path d="M1003 2130 l-33 -20 0 -113 c0 -108 1 -115 25 -137 l25 -24 43 40 42
39 -40 -42 -39 -43 39 -42 40 -43 -42 39 -43 40 -25 -24 c-24 -23 -25 -28 -25
-154 0 -119 2 -132 22 -153 24 -26 19 -32 -6 -7 -15 14 -16 12 -16 -27 l0 -43
38 35 37 34 -37 -40 c-35 -38 -38 -45 -38 -100 1 -58 1 -59 14 -30 14 31 40
58 66 67 25 9 60 -10 60 -31 0 -21 -25 -51 -43 -51 -8 0 -7 4 1 12 14 14 16
58 2 58 -17 0 -50 -44 -61 -81 -24 -79 42 -112 84 -41 20 33 22 51 22 164 0
71 -4 128 -8 128 -5 0 -6 4 -3 9 3 4 6 131 7 281 1 269 1 272 -22 296 -27 29
-44 30 -86 4z m87 -604 c0 -2 -8 -10 -17 -17 -16 -13 -17 -12 -4 4 13 16 21
21 21 13z"/>
<path d="M970 1830 l0 -44 22 22 22 22 -22 22 -22 22 0 -44z"/>
<path d="M801 1827 c-84 -49 -85 -57 -21 -122 l55 -56 18 22 c13 16 17 40 17
105 0 46 -3 84 -7 83 -5 0 -32 -15 -62 -32z"/>
<path d="M1211 1759 l1 -100 21 17 c21 17 21 17 0 -6 l-23 -24 28 -31 27 -30
-28 25 -27 24 2 -175 3 -174 28 3 c31 4 31 3 17 -33 -8 -20 -7 -26 2 -23 7 3
15 14 18 26 5 23 56 56 70 47 5 -3 9 106 9 242 0 162 -3 243 -9 233 -8 -13
-10 -12 -10 3 0 9 -6 17 -13 17 -7 0 -28 11 -47 25 -19 14 -40 23 -48 20 -7
-2 -10 0 -7 5 3 6 1 10 -5 10 -6 0 -10 -35 -9 -101z m119 7 c0 -2 -8 -10 -17
-17 -16 -13 -17 -12 -4 4 13 16 21 21 21 13z m-14 -228 l29 -33 -32 29 c-31
28 -38 36 -30 36 2 0 16 -15 33 -32z"/>
<path d="M731 1661 c-2 -96 3 -109 32 -84 13 10 10 4 -5 -13 l-28 -30 0 -172
c0 -95 4 -172 8 -172 4 0 12 3 18 8 5 4 2 0 -8 -9 -15 -15 -17 -36 -17 -162
l0 -146 -33 -36 c-18 -20 -37 -43 -41 -51 -4 -8 -13 -14 -20 -14 -9 0 -11 36
-9 141 3 108 1 140 -8 134 -9 -6 -9 -2 0 14 9 17 9 26 -1 37 -7 9 -8 14 -1 14
7 0 11 52 10 156 l0 156 -36 -33 -37 -34 34 37 c32 35 35 43 37 108 l2 70 -30
-16 c-20 -10 -28 -20 -24 -31 5 -13 4 -13 -7 -4 -11 8 -22 6 -48 -12 l-34 -23
-3 -99 -3 -99 28 24 28 25 -21 -25 c-33 -39 -36 -48 -23 -71 8 -16 8 -20 0
-14 -9 5 -11 -40 -10 -172 l1 -178 81 -83 82 -82 90 87 c49 49 12 9 -83 -88
-94 -96 -172 -179 -172 -183 0 -4 5 -16 10 -27 8 -14 7 -19 -1 -19 -7 0 -9
-15 -5 -46 3 -26 7 -48 9 -50 2 -2 14 7 27 21 20 21 21 27 9 42 -12 16 -12 17
1 6 13 -10 21 -6 45 25 17 20 37 48 46 62 9 14 31 40 48 58 17 18 31 36 31 39
0 4 -10 18 -22 32 l-23 26 27 -23 26 -24 91 90 c65 64 87 92 79 100 -8 8 -6
10 8 6 12 -3 34 9 61 33 64 57 124 103 135 103 6 0 8 7 5 14 -4 10 -1 13 7 10
8 -3 38 10 67 29 71 45 175 97 277 137 45 18 82 36 82 41 0 5 5 9 11 9 5 0 7
-4 4 -10 -3 -5 -2 -10 4 -10 5 0 13 5 16 10 4 6 11 8 16 5 5 -4 15 -3 22 2 6
4 19 8 27 8 8 1 57 7 108 14 132 20 104 30 -99 35 l-35 1 4 106 4 106 -36 23
c-49 30 -67 31 -93 7 -18 -16 -23 -31 -23 -71 0 -44 4 -55 38 -91 25 -27 27
-31 6 -12 -16 15 -33 27 -37 27 -4 0 -6 -22 -5 -49 2 -29 -3 -55 -11 -65 -8
-10 -14 -30 -14 -47 0 -16 -4 -29 -9 -29 -4 0 -8 5 -8 11 0 6 -8 8 -20 4 -13
-4 -23 0 -31 14 -13 19 -13 19 -37 0 -17 -13 -29 -16 -37 -9 -7 6 -15 6 -23
-2 -16 -16 -41 7 -36 35 3 17 1 15 -9 -6 -8 -18 -30 -36 -56 -48 -43 -19 -43
-19 -48 1 -6 24 -12 24 -48 6 -29 -15 -72 -7 -87 17 -12 19 -9 -62 3 -85 8
-15 8 -19 0 -14 -6 4 -11 0 -11 -11 -1 -17 -87 -90 -95 -81 -3 2 -5 67 -6 143
-1 138 -2 139 -20 116 -11 -13 -19 -19 -19 -14 0 6 9 18 20 28 18 17 20 31 20
164 l0 147 -69 68 -68 68 -2 -81z m848 -395 c-2 -2 -13 8 -23 22 l-19 27 24
-22 c12 -12 21 -24 18 -27z m-549 -188 c0 -5 -4 -7 -8 -4 -13 8 -186 -170
-178 -183 12 -18 0 -12 -20 11 -10 12 -13 18 -5 13 9 -5 40 19 102 81 48 48
86 91 83 96 -3 4 2 5 10 2 9 -3 16 -10 16 -16z"/>
<path d="M851 1656 c-9 -10 -8 -16 4 -26 13 -11 15 -8 15 14 0 30 -3 32 -19
12z"/>
<path d="M1452 1552 c-2 -25 -2 -25 18 -7 24 22 24 22 2 27 -13 4 -18 -1 -20
-20z"/>
<path d="M1309 1268 c-6 -21 -5 -38 2 -38 5 0 9 9 9 20 0 16 -7 28 -11 18z"/>
<path d="M1391 1261 c-7 -5 -11 -17 -9 -27 4 -17 5 -17 17 4 14 27 12 35 -8
23z"/>
<path d="M480 713 l0 -158 80 80 80 80 -77 77 c-43 43 -79 78 -80 78 -2 0 -3
-71 -3 -157z"/>
<path d="M1210 745 c0 -103 3 -125 15 -125 11 0 15 19 17 93 l3 92 45 -77 c25
-43 48 -78 52 -78 3 0 28 37 55 83 l48 82 3 -97 c4 -144 22 -122 22 27 0 69
-4 125 -9 125 -5 0 -33 -40 -62 -89 -29 -50 -56 -88 -60 -85 -5 2 -30 43 -56
89 -26 47 -54 85 -60 85 -10 0 -13 -32 -13 -125z"/>
<path d="M1560 745 l0 -125 85 0 c50 0 85 4 85 10 0 6 -32 10 -75 10 l-75 0 0
50 0 50 65 0 c37 0 65 4 65 10 0 6 -28 10 -65 10 l-65 0 0 45 0 45 75 0 c43 0
75 4 75 10 0 6 -35 10 -85 10 l-85 0 0 -125z"/>
<path d="M1800 745 c0 -77 4 -125 10 -125 6 0 10 18 10 40 l0 40 50 0 c28 0
50 -4 50 -8 0 -14 58 -77 65 -70 4 4 -5 23 -20 42 l-28 36 27 25 c26 24 34 63
20 100 -11 27 -60 45 -124 45 l-60 0 0 -125z m145 80 c14 -13 25 -31 25 -40 0
-9 -11 -27 -25 -40 -19 -20 -34 -25 -75 -25 l-50 0 0 65 0 65 50 0 c41 0 56
-5 75 -25z"/>
<path d="M2060 745 c0 -77 4 -125 10 -125 6 0 10 38 10 95 0 52 3 95 8 94 4 0
41 -43 82 -95 41 -51 81 -94 87 -94 10 0 13 31 13 125 0 103 -3 125 -15 125
-11 0 -15 -20 -17 -100 l-3 -100 -78 100 c-43 55 -82 100 -87 100 -6 0 -10
-52 -10 -125z"/>
<path d="M2400 725 l0 -125 95 0 c88 0 95 1 95 20 0 18 -7 20 -75 20 l-75 0 0
35 0 35 65 0 c50 0 65 3 65 15 0 10 -16 15 -62 17 l-63 3 0 35 0 35 68 0 c57
0 67 3 67 18 0 15 -11 17 -90 17 l-90 0 0 -125z"/>
<path d="M2668 839 c-31 -17 -41 -47 -28 -79 9 -22 24 -33 60 -45 59 -20 78
-38 60 -60 -16 -20 -70 -19 -99 1 -19 14 -25 14 -32 3 -14 -22 -11 -26 25 -43
55 -26 125 -17 148 18 12 18 9 73 -5 84 -7 6 -35 19 -62 29 -54 20 -68 45 -36
62 15 8 30 8 60 -3 35 -12 41 -11 46 3 4 9 -1 21 -11 28 -21 15 -102 17 -126
2z"/>
<path d="M2832 833 c3 -14 11 -17 41 -15 l37 4 0 -111 c0 -104 1 -111 20 -111
18 0 20 8 22 108 l3 107 38 0 c29 0 37 4 37 18 0 15 -11 17 -101 17 -90 0
-100 -2 -97 -17z"/>
<path d="M3141 828 c-5 -13 -21 -50 -36 -83 -15 -33 -36 -79 -46 -102 l-18
-43 22 0 c16 0 26 9 34 30 11 29 13 30 76 30 63 0 65 -1 76 -30 7 -20 17 -30
30 -30 12 0 21 3 21 6 0 4 -24 60 -52 125 -45 102 -56 119 -75 119 -15 0 -27
-8 -32 -22z m79 -134 c0 -2 -20 -4 -45 -4 -25 0 -45 4 -45 9 0 5 9 31 21 58
l21 48 24 -54 c13 -29 24 -55 24 -57z"/>
<path d="M3310 836 c0 -10 13 -16 38 -18 l37 -3 3 -107 c2 -99 4 -108 22 -108
18 0 20 9 22 108 l3 107 38 3 c24 2 37 8 37 18 0 11 -20 14 -100 14 -80 0
-100 -3 -100 -14z"/>
<path d="M3550 725 l0 -125 90 0 c83 0 90 1 90 20 0 18 -7 20 -70 20 l-70 0 0
35 0 35 60 0 c46 0 60 3 60 15 0 10 -15 15 -57 17 l-58 3 0 35 0 35 65 1 c52
1 66 5 68 18 3 14 -9 16 -87 16 l-91 0 0 -125z"/>
</g>
</svg>
